<?xml version="1.0" encoding="utf-8"?>
<!-- Generator: Adobe Illustrator 25.3.1, SVG Export Plug-In . SVG Version: 6.00 Build 0)  -->
<svg version="1.1" id="Ebene_1" xmlns="http://www.w3.org/2000/svg" xmlns:xlink="http://www.w3.org/1999/xlink" x="0px" y="0px"
	 viewBox="0 0 800 800" style="enable-background:new 0 0 800 800;" xml:space="preserve">
<style type="text/css">
	.st0{fill:none;stroke:#FFFFFF;stroke-width:26;stroke-miterlimit:10;}
	.st1{fill:none;stroke:#FFFFFF;stroke-width:20;stroke-miterlimit:10;}
	.st2{fill:none;stroke:#FFFFFF;stroke-width:9;stroke-miterlimit:10;}
</style>
<path class="st0" d="M616.57,686.92H183.43c-38.85,0-70.35-31.5-70.35-70.35V183.43c0-38.85,31.5-70.35,70.35-70.35h433.14
	c38.85,0,70.35,31.5,70.35,70.35v433.14C686.92,655.42,655.42,686.92,616.57,686.92z"/>
<path class="st1" d="M400,527.91L400,527.91c-70.64,0-127.91-57.27-127.91-127.91v0c0-70.64,57.27-127.91,127.91-127.91h0
	c70.64,0,127.91,57.27,127.91,127.91v0C527.91,470.64,470.64,527.91,400,527.91z"/>
<path class="st2" d="M574.71,247.38L574.71,247.38c-11.24,0-20.35-9.11-20.35-20.35v0c0-11.24,9.11-20.35,20.35-20.35h0
	c11.24,0,20.35,9.11,20.35,20.35v0C595.06,238.27,585.95,247.38,574.71,247.38z"/>
</svg>
